# xmcd
#
# Track frame offsets:
#	150
#	9982
#	25629
#	39249
#	54853
#	67168
#	84929
#	96260
#	106429
#	127645
#	134885
#	157212
#	171593
#
# Disc length: 2603 seconds
#
# Revision: 1
# Processed by: cddbd v1.5.1PL0 Copyright (c) Steve Scherf et al.
# Submitted via: EasyCDDAExtractor 8.0.2.1
#
DISCID=a60a290d
DTITLE=Alice Cooper - Tingley Coliseum Albuquerque 10-09-05 Disc 2
DYEAR=2005
DGENRE=Hard Rock
TTITLE0=Gimme
TTITLE1=Feed My Frankenstein
TTITLE2=Welcome To My Nightmare
TTITLE3=Steven
TTITLE4=Only Women Bleed - Steven
TTITLE5=Ballad Of Dwight Fry
TTITLE6=Killer
TTITLE7=I Love The Dead
TTITLE8=School's Out
TTITLE9=Encore Break
TTITLE10=Poison
TTITLE11=Wish I Were Born In Beverly Hills
TTITLE12=Under My Wheels
EXTD=
EXTT0=
EXTT1=
EXTT2=
EXTT3=
EXTT4=
EXTT5=
EXTT6=
EXTT7=
EXTT8=
EXTT9=
EXTT10=
EXTT11=
EXTT12=
PLAYORDER=
